<svg width="25" height="25" viewBox="0 0 25 25" fill="none" xmlns="http://www.w3.org/2000/svg">
<path d="M21.875 13.3229C21.7112 15.096 21.0457 16.7858 19.9565 18.1946C18.8673 19.6033 17.3995 20.6727 15.7247 21.2776C14.0499 21.8826 12.2375 21.998 10.4995 21.6105C8.7615 21.223 7.1698 20.3485 5.91067 19.0893C4.65154 17.8302 3.77704 16.2385 3.38951 14.5005C3.00197 12.7625 3.11743 10.9501 3.72237 9.27531C4.32731 7.60053 5.39672 6.13267 6.80545 5.04349C8.21418 3.95431 9.90397 3.28886 11.6771 3.125C10.639 4.52945 10.1394 6.25984 10.2693 8.00147C10.3992 9.7431 11.1499 11.3803 12.3848 12.6152C13.6198 13.8501 15.2569 14.6008 16.9985 14.7307C18.7402 14.8606 20.4706 14.361 21.875 13.3229Z" stroke="#A692D9" stroke-width="2" stroke-linecap="round" stroke-linejoin="round"/>
</svg>
